<svg xmlns="http://www.w3.org/2000/svg" width="120" height="92" viewBox="0 0 120 92" xmlns:xlink="http://www.w3.org/1999/xlink">
    <defs>
        <path id="a" d="M80 49c0-.1097061.0017661-.2189995.0052715-.3278535 5.2622435-.1695014 9.497374-4.4046322 9.666875-9.6668758C89.7809997 39.0017658 89.8902932 39 90 39c.1097061 0 .2189995.0017661.3278535.0052715.1695014 5.2622435 4.4046322 9.497374 9.6668758 9.666875C99.9982342 48.7809997 100 48.8902932 100 49c0 .1097061-.0017661.2189995-.0052715.3278535-5.2622435.1695014-9.497374 4.4046322-9.666875 9.6668758C90.2190003 58.9982342 90.1097068 59 90 59c-.1097061 0-.2189995-.0017661-.3278535-.0052715-.1695014-5.2622435-4.4046322-9.497374-9.6668758-9.666875C80.0017658 49.2190003 80 49.1097068 80 49z"/>
        <mask id="c" width="20" height="20" x="0" y="0" fill="#fff">
            <use xlink:href="#a"/>
        </mask>
        <path id="b" d="M.6249758 69.1218382c-.05073915.0781314-.1000295.1567851-.14787777.2359296 3.66929094 2.5544908 4.72674494 7.52942 2.41368625 11.3554986.0759028.0528412.152923.104647.2310539.1553858.07813143.0507391.15678515.1000294.2359296.1478777 2.5544908-3.6692909 7.52942002-4.7267449 11.35549862-2.4136862.0528412-.0759028.104647-.152923.1553858-.2310539.0507391-.0781315.1000294-.1567852.1478777-.2359296-3.6692909-2.5544908-4.7267449-7.52942-2.4136862-11.3554987-.0759028-.0528412-.152923-.1046469-.2310539-.1553857-.0781315-.0507392-.1567852-.1000295-.2359296-.1478778-2.55449085 3.669291-7.52942002 4.726745-11.3554987 2.4136863"/>
        <mask id="d" width="14.539" height="14.539" x="0" y="0" fill="#fff">
            <use xlink:href="#b"/>
        </mask>
    </defs>
    <g fill="none" fill-rule="evenodd">
        <path fill="#364FC7" d="M100.764457 82.7178218h2.212234v2.2277228C102.976691 88.8416127 99.8402626 92 95.971282 92H35.8726226c-4.8873123 0-8.8493136-3.9882812-8.8493136-8.9091325V22.9424772C27.023309 19.660792 29.6609796 17 32.9192431 17h52.3629302c3.2565771 0 5.8959341 2.6623203 5.8959341 5.9424772v4.0822753c0 .6151686-.4952255 1.1138614-1.1061172 1.1138614-.6108917 0-1.1061172-.4986928-1.1061172-1.1138614v-4.0822753c0-2.0501622-1.6492486-3.7147544-3.6836997-3.7147544H32.9192431c-2.0362249 0-3.6836997 1.6631522-3.6836997 3.7147544v60.1483903c0 3.690485 2.9715216 6.6814097 6.6370792 6.6814097h54.9896925c-1.1760992-1.2618618-1.8964421-2.9595857-1.8964421-4.8267326v-2.2277228h5.8992918-5.8992918V69.3514851c0-.6151686.4952255-1.1138613 1.1061172-1.1138613.6108917 0 1.1061172.4986927 1.1061172 1.1138613v15.5940595-2.2277228h9.5863496zM42.50895 56.7277228c0-.6151687.4925306-1.1138614 1.1089977-1.1138614h23.5914062c.6124825 0 1.1089977.4999445 1.1089977 1.1138614 0 .6151686-.4925306 1.1138614-1.1089977 1.1138614H43.6179477c-.6124825 0-1.1089977-.4999445-1.1089977-1.1138614zm0 11.1386138c0-.6151686.4948383-1.1138614 1.104075-1.1138614h30.9753664c.6097638 0 1.104075.4999445 1.104075 1.1138614 0 .6151687-.4948383 1.1138614-1.104075 1.1138614H43.613025c-.6097638 0-1.104075-.4999445-1.104075-1.1138614zm0-22.2772277c0-.6151686.4925306-1.1138614 1.1089977-1.1138614h23.5914062c.6124825 0 1.1089977.4999445 1.1089977 1.1138614 0 .6151687-.4925306 1.1138614-1.1089977 1.1138614H43.6179477c-.6124825 0-1.1089977-.4999445-1.1089977-1.1138614zm58.255507 39.3564357h-9.5863496c0 2.6657308 2.1459774 4.8267326 4.7931746 4.8267326 2.6471972 0 4.793175-2.1610018 4.793175-4.8267326zM118 79c1.104569 0 2-.8954305 2-2s-.895431-2-2-2c-1.104569 0-2 .8954305-2 2s.895431 2 2 2z"/>
        <path stroke="#364FC7" stroke-width="2" d="M13.5 38c1.9329966 0 3.5-1.5670034 3.5-3.5S15.4329966 31 13.5 31 10 32.5670034 10 34.5" stroke-linecap="round" stroke-linejoin="round"/>
        <use stroke="#364FC7" stroke-width="4" mask="url(#c)" stroke-linecap="round" stroke-linejoin="round" xlink:href="#a"/>
        <path fill="#364FC7" d="M98 8.49181843c0-.0931604.0014998-.18597043.0044764-.27840724 4.4686016-.14393757 8.0649976-3.74033374 8.2089346-8.20893547C106.305847.00149953 106.398657 0 106.491818 0c.093161 0 .185971.00149975.278408.00447645.143937 4.46860163 3.740333 8.06499758 8.208935 8.20893477.002976.09243615.004476.18524616.004476.2784072 0 .0931604-.0015.18597043-.004477.27840724-4.468601.14393755-8.064997 3.74033374-8.208934 8.20893544-.092437.0029762-.185247.0044758-.278408.0044758-.09316 0-.18597-.0014998-.278407-.0044765-.143937-4.4686016-3.740334-8.06499758-8.2089353-8.20893476C98.0014995 8.67778948 98 8.58497947 98 8.49181844z"/>
        <use stroke="#364FC7" stroke-width="4" mask="url(#d)" stroke-linecap="round" stroke-linejoin="round" xlink:href="#b"/>
    </g>
</svg>
